<svg width="1920" height="1087" viewBox="0 0 1920 1087" fill="none" xmlns="http://www.w3.org/2000/svg">
<g clip-path="url(#clip0_529_103)">
<rect width="1920" height="1087" fill="black"/>
<g filter="url(#filter0_f_529_103)">
<g filter="url(#filter1_f_529_103)">
<path d="M2172.23 -70.2927C2158.18 0.822729 2129.61 68.3463 2088.16 128.423C2046.7 188.499 1993.17 239.952 1930.61 279.844C1868.06 319.736 1797.71 347.285 1723.59 360.918C1649.46 374.552 1573.01 374.003 1498.59 359.303C1424.18 344.602 1353.26 316.039 1289.88 275.243C1226.51 234.447 1171.92 182.218 1129.24 121.537C1086.55 60.8565 1056.6 -7.08728 1041.1 -78.4148C1025.61 -149.742 1024.86 -223.057 1038.91 -294.172L1175.06 -267.277C1164.39 -213.248 1164.95 -157.549 1176.73 -103.359C1188.5 -49.1692 1211.25 2.44975 1243.68 48.5508C1276.11 94.6518 1317.59 134.332 1365.73 165.326C1413.88 196.32 1467.76 218.02 1524.3 229.188C1580.83 240.357 1638.91 240.774 1695.23 230.416C1751.55 220.058 1804.99 199.128 1852.52 168.821C1900.04 138.514 1940.71 99.424 1972.21 53.782C2003.7 8.14001 2025.4 -43.1598 2036.08 -97.1883L2172.23 -70.2927Z" fill="#233758"/>
</g>
</g>
<g filter="url(#filter2_f_529_103)">
<path d="M1959.76 -95.1242C1950.58 -48.6396 1932.16 -4.4523 1905.56 34.9148C1878.96 74.282 1844.69 108.058 1804.72 134.314C1764.75 160.571 1719.86 178.793 1672.6 187.942C1625.35 197.09 1576.66 196.985 1529.32 187.632C1481.97 178.28 1436.9 159.863 1396.68 133.434C1356.45 107.004 1321.86 73.0799 1294.87 33.5972C1267.89 -5.88562 1249.04 -50.1533 1239.41 -96.6785C1229.77 -143.204 1229.54 -191.075 1238.73 -237.56L1330.45 -219.441C1323.6 -184.783 1323.78 -149.091 1330.96 -114.402C1338.14 -79.7141 1352.19 -46.709 1372.31 -17.2715C1392.43 12.166 1418.22 37.4595 1448.21 57.1647C1478.21 76.8699 1511.81 90.6011 1547.11 97.5741C1582.41 104.547 1618.71 104.625 1653.94 97.8045C1689.17 90.9838 1722.64 77.3973 1752.44 57.8211C1782.25 38.2449 1807.79 13.0623 1827.63 -16.2891C1847.46 -45.6404 1861.19 -78.5855 1868.04 -113.243L1959.76 -95.1242Z" fill="#89C4F4"/>
</g>
<g filter="url(#filter3_f_529_103)">
<ellipse cx="1550.66" cy="-51.9027" rx="130" ry="121.5" transform="rotate(11.1745 1550.66 -51.9027)" fill="#B3D1E9"/>
</g>
<g filter="url(#filter4_f_529_103)">
<g filter="url(#filter5_f_529_103)">
<path d="M2273.57 39.9359C2243.11 194.097 2138.76 327.101 1983.48 409.688C1828.19 492.274 1634.68 517.679 1445.52 480.312C1256.37 442.945 1087.05 345.869 974.835 210.438C862.614 75.0069 816.678 -87.6845 847.132 -241.846L1018.5 -207.994C995.359 -90.873 1030.26 32.7286 1115.52 135.62C1200.77 238.511 1329.4 312.263 1473.11 340.651C1616.82 369.04 1763.83 349.74 1881.81 286.996C1999.79 224.252 2079.07 123.205 2102.2 6.08412L2273.57 39.9359Z" fill="#172336"/>
</g>
</g>
<g filter="url(#filter6_f_529_103)">
<g filter="url(#filter7_f_529_103)">
<path d="M2172.23 -70.2927C2158.18 0.822729 2129.61 68.3463 2088.16 128.423C2046.7 188.499 1993.17 239.952 1930.61 279.844C1868.06 319.736 1797.71 347.285 1723.59 360.918C1649.46 374.552 1573.01 374.003 1498.59 359.303C1424.18 344.602 1353.26 316.039 1289.88 275.243C1226.51 234.447 1171.92 182.218 1129.24 121.537C1086.55 60.8565 1056.6 -7.08728 1041.1 -78.4148C1025.61 -149.742 1024.86 -223.057 1038.91 -294.172L1175.06 -267.277C1164.39 -213.248 1164.95 -157.549 1176.73 -103.359C1188.5 -49.1692 1211.25 2.44975 1243.68 48.5508C1276.11 94.6518 1317.59 134.332 1365.73 165.326C1413.88 196.32 1467.76 218.02 1524.3 229.188C1580.83 240.357 1638.91 240.774 1695.23 230.416C1751.55 220.058 1804.99 199.128 1852.52 168.821C1900.04 138.514 1940.71 99.424 1972.21 53.782C2003.7 8.14001 2025.4 -43.1598 2036.08 -97.1883L2172.23 -70.2927Z" fill="#233758"/>
</g>
</g>
<g filter="url(#filter8_f_529_103)">
<path d="M1959.76 -95.1242C1950.58 -48.6396 1932.16 -4.4523 1905.56 34.9148C1878.96 74.282 1844.69 108.058 1804.72 134.314C1764.75 160.571 1719.86 178.793 1672.6 187.942C1625.35 197.09 1576.66 196.985 1529.32 187.632C1481.97 178.28 1436.9 159.863 1396.68 133.434C1356.45 107.004 1321.86 73.0799 1294.87 33.5972C1267.89 -5.88562 1249.04 -50.1533 1239.41 -96.6785C1229.77 -143.204 1229.54 -191.075 1238.73 -237.56L1330.45 -219.441C1323.6 -184.783 1323.78 -149.091 1330.96 -114.402C1338.14 -79.7141 1352.19 -46.709 1372.31 -17.2715C1392.43 12.166 1418.22 37.4595 1448.21 57.1647C1478.21 76.8699 1511.81 90.6011 1547.11 97.5741C1582.41 104.547 1618.71 104.625 1653.94 97.8045C1689.17 90.9838 1722.64 77.3973 1752.44 57.8211C1782.25 38.2449 1807.79 13.0623 1827.63 -16.2891C1847.46 -45.6404 1861.19 -78.5855 1868.04 -113.243L1959.76 -95.1242Z" fill="#89C4F4"/>
</g>
<g filter="url(#filter9_f_529_103)">
<ellipse cx="1550.66" cy="-51.9027" rx="130" ry="121.5" transform="rotate(11.1745 1550.66 -51.9027)" fill="#B3D1E9"/>
</g>
<g filter="url(#filter10_f_529_103)">
<g filter="url(#filter11_f_529_103)">
<path d="M2273.57 39.9359C2243.11 194.097 2138.76 327.101 1983.48 409.688C1828.19 492.274 1634.68 517.679 1445.52 480.312C1256.37 442.945 1087.05 345.869 974.835 210.438C862.614 75.0069 816.678 -87.6845 847.132 -241.846L1018.5 -207.994C995.359 -90.873 1030.26 32.7286 1115.52 135.62C1200.77 238.511 1329.4 312.263 1473.11 340.651C1616.82 369.04 1763.83 349.74 1881.81 286.996C1999.79 224.252 2079.07 123.205 2102.2 6.08412L2273.57 39.9359Z" fill="#172336"/>
</g>
</g>
<g filter="url(#filter12_f_529_103)">
<g filter="url(#filter13_f_529_103)">
<path d="M1188.32 1343.24C1197.03 1260.86 1188.56 1177.48 1163.38 1097.86C1138.2 1018.23 1096.8 943.928 1041.56 879.181C986.31 814.434 918.297 760.514 841.398 720.5C764.499 680.486 680.221 655.162 593.376 645.973C506.53 636.783 418.819 643.91 335.249 666.944C251.678 689.979 173.887 728.471 106.314 780.223C38.742 831.974 -17.2871 895.972 -58.5742 968.562C-99.8613 1041.15 -125.598 1120.91 -134.314 1203.29L24.5795 1220.1C31.2016 1157.52 50.7544 1096.92 82.1215 1041.77C113.489 986.624 156.056 938.003 207.392 898.685C258.729 859.368 317.83 830.124 381.321 812.624C444.812 795.124 511.449 789.71 577.428 796.691C643.407 803.673 707.435 822.912 765.858 853.312C824.28 883.712 875.953 924.677 917.924 973.867C959.896 1023.06 991.345 1079.51 1010.48 1140C1029.61 1200.49 1036.05 1263.84 1029.42 1326.43L1188.32 1343.24Z" fill="#233758"/>
</g>
</g>
<g filter="url(#filter14_f_529_103)">
<path d="M946.183 1298.3C951.881 1244.45 946.64 1189.98 930.759 1138C914.879 1086.01 888.67 1037.53 853.63 995.322C818.589 953.113 775.403 918.003 726.537 891.996C677.671 865.989 624.082 849.594 568.83 843.747C513.578 837.901 457.744 842.718 404.517 857.923C351.291 873.127 301.713 898.422 258.615 932.363C215.517 966.304 179.743 1008.23 153.335 1055.74C126.927 1103.25 110.403 1155.41 104.705 1209.26L211.75 1220.58C215.998 1180.44 228.318 1141.54 248.007 1106.12C267.696 1070.7 294.369 1039.44 326.502 1014.14C358.635 988.832 395.599 969.972 435.284 958.636C474.968 947.3 516.597 943.709 557.792 948.067C598.987 952.426 638.941 964.65 675.375 984.04C711.809 1003.43 744.007 1029.61 770.133 1061.08C796.258 1092.55 815.799 1128.69 827.639 1167.45C839.479 1206.21 843.387 1246.82 839.139 1286.97L946.183 1298.3Z" fill="#89C4F4"/>
</g>
<g filter="url(#filter15_f_529_103)">
<ellipse cx="149.67" cy="138.843" rx="149.67" ry="138.843" transform="matrix(0.994449 0.105223 0.105223 -0.994449 347.45 1234.73)" fill="#B3D1E9"/>
</g>
<g filter="url(#filter16_f_529_103)">
<g filter="url(#filter17_f_529_103)">
<path d="M1337.24 1257.3C1356.13 1078.72 1286.56 898.184 1143.83 755.397C1001.09 612.609 796.884 519.269 576.13 495.911C355.376 472.553 136.158 521.089 -33.2997 630.844C-202.757 740.598 -308.572 902.58 -327.468 1081.15L-127.479 1102.32C-113.124 966.647 -32.7324 843.584 96.0097 760.201C224.752 676.817 391.299 639.942 559.012 657.688C726.726 675.434 881.868 746.347 990.308 854.827C1098.75 963.307 1151.61 1100.47 1137.25 1236.14L1337.24 1257.3Z" fill="#172336"/>
</g>
</g>
<g filter="url(#filter18_f_529_103)">
<g filter="url(#filter19_f_529_103)">
<path d="M1188.32 1343.24C1197.03 1260.86 1188.56 1177.48 1163.38 1097.86C1138.2 1018.23 1096.8 943.928 1041.56 879.181C986.31 814.434 918.297 760.514 841.398 720.5C764.499 680.486 680.221 655.162 593.376 645.973C506.53 636.783 418.819 643.91 335.249 666.944C251.678 689.979 173.887 728.471 106.314 780.223C38.742 831.974 -17.2871 895.972 -58.5742 968.562C-99.8613 1041.15 -125.598 1120.91 -134.314 1203.29L24.5795 1220.1C31.2016 1157.52 50.7544 1096.92 82.1215 1041.77C113.489 986.624 156.056 938.003 207.392 898.685C258.729 859.368 317.83 830.124 381.321 812.624C444.812 795.124 511.449 789.71 577.428 796.691C643.407 803.673 707.435 822.912 765.858 853.312C824.28 883.712 875.953 924.677 917.924 973.867C959.896 1023.06 991.345 1079.51 1010.48 1140C1029.61 1200.49 1036.05 1263.84 1029.42 1326.43L1188.32 1343.24Z" fill="#233758"/>
</g>
</g>
<g filter="url(#filter20_f_529_103)">
<path d="M946.183 1298.3C951.881 1244.45 946.64 1189.98 930.759 1138C914.879 1086.01 888.67 1037.53 853.63 995.322C818.589 953.113 775.403 918.003 726.537 891.996C677.671 865.989 624.082 849.594 568.83 843.747C513.578 837.901 457.744 842.718 404.517 857.923C351.291 873.127 301.713 898.422 258.615 932.363C215.517 966.304 179.743 1008.23 153.335 1055.74C126.927 1103.25 110.403 1155.41 104.705 1209.26L211.75 1220.58C215.998 1180.44 228.318 1141.54 248.007 1106.12C267.696 1070.7 294.369 1039.44 326.502 1014.14C358.635 988.832 395.599 969.972 435.284 958.636C474.968 947.3 516.597 943.709 557.792 948.067C598.987 952.426 638.941 964.65 675.375 984.04C711.809 1003.43 744.007 1029.61 770.133 1061.08C796.258 1092.55 815.799 1128.69 827.639 1167.45C839.479 1206.21 843.387 1246.82 839.139 1286.97L946.183 1298.3Z" fill="#89C4F4"/>
</g>
<g filter="url(#filter21_f_529_103)">
<ellipse cx="149.67" cy="138.843" rx="149.67" ry="138.843" transform="matrix(0.994449 0.105223 0.105223 -0.994449 347.45 1234.73)" fill="#B3D1E9"/>
</g>
<g filter="url(#filter22_f_529_103)">
<g filter="url(#filter23_f_529_103)">
<path d="M1337.24 1257.3C1356.13 1078.72 1286.56 898.184 1143.83 755.397C1001.09 612.609 796.884 519.269 576.13 495.911C355.376 472.553 136.158 521.089 -33.2997 630.844C-202.757 740.598 -308.572 902.58 -327.468 1081.15L-127.479 1102.32C-113.124 966.647 -32.7324 843.584 96.0097 760.201C224.752 676.817 391.299 639.942 559.012 657.688C726.726 675.434 881.868 746.347 990.308 854.827C1098.75 963.307 1151.61 1100.47 1137.25 1236.14L1337.24 1257.3Z" fill="#172336"/>
</g>
</g>
</g>
<defs>
<filter id="filter0_f_529_103" x="928.899" y="-394.172" width="1343.33" height="864.923" filterUnits="userSpaceOnUse" color-interpolation-filters="sRGB">
<feFlood flood-opacity="0" result="BackgroundImageFix"/>
<feBlend mode="normal" in="SourceGraphic" in2="BackgroundImageFix" result="shape"/>
<feGaussianBlur stdDeviation="50" result="effect1_foregroundBlur_529_103"/>
</filter>
<filter id="filter1_f_529_103" x="948.899" y="-374.172" width="1303.33" height="824.923" filterUnits="userSpaceOnUse" color-interpolation-filters="sRGB">
<feFlood flood-opacity="0" result="BackgroundImageFix"/>
<feBlend mode="normal" in="SourceGraphic" in2="BackgroundImageFix" result="shape"/>
<feGaussianBlur stdDeviation="40" result="effect1_foregroundBlur_529_103"/>
</filter>
<filter id="filter2_f_529_103" x="1032.01" y="-437.56" width="1127.75" height="832.285" filterUnits="userSpaceOnUse" color-interpolation-filters="sRGB">
<feFlood flood-opacity="0" result="BackgroundImageFix"/>
<feBlend mode="normal" in="SourceGraphic" in2="BackgroundImageFix" result="shape"/>
<feGaussianBlur stdDeviation="100" result="effect1_foregroundBlur_529_103"/>
</filter>
<filter id="filter3_f_529_103" x="1220.95" y="-373.758" width="659.427" height="643.71" filterUnits="userSpaceOnUse" color-interpolation-filters="sRGB">
<feFlood flood-opacity="0" result="BackgroundImageFix"/>
<feBlend mode="normal" in="SourceGraphic" in2="BackgroundImageFix" result="shape"/>
<feGaussianBlur stdDeviation="100" result="effect1_foregroundBlur_529_103"/>
</filter>
<filter id="filter4_f_529_103" x="637.945" y="-441.846" width="1835.62" height="1138.99" filterUnits="userSpaceOnUse" color-interpolation-filters="sRGB">
<feFlood flood-opacity="0" result="BackgroundImageFix"/>
<feBlend mode="normal" in="SourceGraphic" in2="BackgroundImageFix" result="shape"/>
<feGaussianBlur stdDeviation="100" result="effect1_foregroundBlur_529_103"/>
</filter>
<filter id="filter5_f_529_103" x="757.945" y="-321.846" width="1595.62" height="898.991" filterUnits="userSpaceOnUse" color-interpolation-filters="sRGB">
<feFlood flood-opacity="0" result="BackgroundImageFix"/>
<feBlend mode="normal" in="SourceGraphic" in2="BackgroundImageFix" result="shape"/>
<feGaussianBlur stdDeviation="40" result="effect1_foregroundBlur_529_103"/>
</filter>
<filter id="filter6_f_529_103" x="928.899" y="-394.172" width="1343.33" height="864.923" filterUnits="userSpaceOnUse" color-interpolation-filters="sRGB">
<feFlood flood-opacity="0" result="BackgroundImageFix"/>
<feBlend mode="normal" in="SourceGraphic" in2="BackgroundImageFix" result="shape"/>
<feGaussianBlur stdDeviation="50" result="effect1_foregroundBlur_529_103"/>
</filter>
<filter id="filter7_f_529_103" x="948.899" y="-374.172" width="1303.33" height="824.923" filterUnits="userSpaceOnUse" color-interpolation-filters="sRGB">
<feFlood flood-opacity="0" result="BackgroundImageFix"/>
<feBlend mode="normal" in="SourceGraphic" in2="BackgroundImageFix" result="shape"/>
<feGaussianBlur stdDeviation="40" result="effect1_foregroundBlur_529_103"/>
</filter>
<filter id="filter8_f_529_103" x="1032.01" y="-437.56" width="1127.75" height="832.285" filterUnits="userSpaceOnUse" color-interpolation-filters="sRGB">
<feFlood flood-opacity="0" result="BackgroundImageFix"/>
<feBlend mode="normal" in="SourceGraphic" in2="BackgroundImageFix" result="shape"/>
<feGaussianBlur stdDeviation="100" result="effect1_foregroundBlur_529_103"/>
</filter>
<filter id="filter9_f_529_103" x="1220.95" y="-373.758" width="659.427" height="643.71" filterUnits="userSpaceOnUse" color-interpolation-filters="sRGB">
<feFlood flood-opacity="0" result="BackgroundImageFix"/>
<feBlend mode="normal" in="SourceGraphic" in2="BackgroundImageFix" result="shape"/>
<feGaussianBlur stdDeviation="100" result="effect1_foregroundBlur_529_103"/>
</filter>
<filter id="filter10_f_529_103" x="637.945" y="-441.846" width="1835.62" height="1138.99" filterUnits="userSpaceOnUse" color-interpolation-filters="sRGB">
<feFlood flood-opacity="0" result="BackgroundImageFix"/>
<feBlend mode="normal" in="SourceGraphic" in2="BackgroundImageFix" result="shape"/>
<feGaussianBlur stdDeviation="100" result="effect1_foregroundBlur_529_103"/>
</filter>
<filter id="filter11_f_529_103" x="757.945" y="-321.846" width="1595.62" height="898.991" filterUnits="userSpaceOnUse" color-interpolation-filters="sRGB">
<feFlood flood-opacity="0" result="BackgroundImageFix"/>
<feBlend mode="normal" in="SourceGraphic" in2="BackgroundImageFix" result="shape"/>
<feGaussianBlur stdDeviation="40" result="effect1_foregroundBlur_529_103"/>
</filter>
<filter id="filter12_f_529_103" x="-234.314" y="542.082" width="1525.95" height="901.156" filterUnits="userSpaceOnUse" color-interpolation-filters="sRGB">
<feFlood flood-opacity="0" result="BackgroundImageFix"/>
<feBlend mode="normal" in="SourceGraphic" in2="BackgroundImageFix" result="shape"/>
<feGaussianBlur stdDeviation="50" result="effect1_foregroundBlur_529_103"/>
</filter>
<filter id="filter13_f_529_103" x="-214.314" y="562.082" width="1485.95" height="861.156" filterUnits="userSpaceOnUse" color-interpolation-filters="sRGB">
<feFlood flood-opacity="0" result="BackgroundImageFix"/>
<feBlend mode="normal" in="SourceGraphic" in2="BackgroundImageFix" result="shape"/>
<feGaussianBlur stdDeviation="40" result="effect1_foregroundBlur_529_103"/>
</filter>
<filter id="filter14_f_529_103" x="-95.2948" y="641.338" width="1243.71" height="856.958" filterUnits="userSpaceOnUse" color-interpolation-filters="sRGB">
<feFlood flood-opacity="0" result="BackgroundImageFix"/>
<feBlend mode="normal" in="SourceGraphic" in2="BackgroundImageFix" result="shape"/>
<feGaussianBlur stdDeviation="100" result="effect1_foregroundBlur_529_103"/>
</filter>
<filter id="filter15_f_529_103" x="161.333" y="773.427" width="699.13" height="677.961" filterUnits="userSpaceOnUse" color-interpolation-filters="sRGB">
<feFlood flood-opacity="0" result="BackgroundImageFix"/>
<feBlend mode="normal" in="SourceGraphic" in2="BackgroundImageFix" result="shape"/>
<feGaussianBlur stdDeviation="100" result="effect1_foregroundBlur_529_103"/>
</filter>
<filter id="filter16_f_529_103" x="-527.468" y="290.173" width="2067.75" height="1167.12" filterUnits="userSpaceOnUse" color-interpolation-filters="sRGB">
<feFlood flood-opacity="0" result="BackgroundImageFix"/>
<feBlend mode="normal" in="SourceGraphic" in2="BackgroundImageFix" result="shape"/>
<feGaussianBlur stdDeviation="100" result="effect1_foregroundBlur_529_103"/>
</filter>
<filter id="filter17_f_529_103" x="-407.468" y="410.173" width="1827.75" height="927.125" filterUnits="userSpaceOnUse" color-interpolation-filters="sRGB">
<feFlood flood-opacity="0" result="BackgroundImageFix"/>
<feBlend mode="normal" in="SourceGraphic" in2="BackgroundImageFix" result="shape"/>
<feGaussianBlur stdDeviation="40" result="effect1_foregroundBlur_529_103"/>
</filter>
<filter id="filter18_f_529_103" x="-234.314" y="542.082" width="1525.95" height="901.156" filterUnits="userSpaceOnUse" color-interpolation-filters="sRGB">
<feFlood flood-opacity="0" result="BackgroundImageFix"/>
<feBlend mode="normal" in="SourceGraphic" in2="BackgroundImageFix" result="shape"/>
<feGaussianBlur stdDeviation="50" result="effect1_foregroundBlur_529_103"/>
</filter>
<filter id="filter19_f_529_103" x="-214.314" y="562.082" width="1485.95" height="861.156" filterUnits="userSpaceOnUse" color-interpolation-filters="sRGB">
<feFlood flood-opacity="0" result="BackgroundImageFix"/>
<feBlend mode="normal" in="SourceGraphic" in2="BackgroundImageFix" result="shape"/>
<feGaussianBlur stdDeviation="40" result="effect1_foregroundBlur_529_103"/>
</filter>
<filter id="filter20_f_529_103" x="-95.2948" y="641.338" width="1243.71" height="856.958" filterUnits="userSpaceOnUse" color-interpolation-filters="sRGB">
<feFlood flood-opacity="0" result="BackgroundImageFix"/>
<feBlend mode="normal" in="SourceGraphic" in2="BackgroundImageFix" result="shape"/>
<feGaussianBlur stdDeviation="100" result="effect1_foregroundBlur_529_103"/>
</filter>
<filter id="filter21_f_529_103" x="161.333" y="773.427" width="699.13" height="677.961" filterUnits="userSpaceOnUse" color-interpolation-filters="sRGB">
<feFlood flood-opacity="0" result="BackgroundImageFix"/>
<feBlend mode="normal" in="SourceGraphic" in2="BackgroundImageFix" result="shape"/>
<feGaussianBlur stdDeviation="100" result="effect1_foregroundBlur_529_103"/>
</filter>
<filter id="filter22_f_529_103" x="-527.468" y="290.173" width="2067.75" height="1167.12" filterUnits="userSpaceOnUse" color-interpolation-filters="sRGB">
<feFlood flood-opacity="0" result="BackgroundImageFix"/>
<feBlend mode="normal" in="SourceGraphic" in2="BackgroundImageFix" result="shape"/>
<feGaussianBlur stdDeviation="100" result="effect1_foregroundBlur_529_103"/>
</filter>
<filter id="filter23_f_529_103" x="-407.468" y="410.173" width="1827.75" height="927.125" filterUnits="userSpaceOnUse" color-interpolation-filters="sRGB">
<feFlood flood-opacity="0" result="BackgroundImageFix"/>
<feBlend mode="normal" in="SourceGraphic" in2="BackgroundImageFix" result="shape"/>
<feGaussianBlur stdDeviation="40" result="effect1_foregroundBlur_529_103"/>
</filter>
<clipPath id="clip0_529_103">
<rect width="1920" height="1087" fill="white"/>
</clipPath>
</defs>
</svg>
