<svg width="1920" height="1087" viewBox="0 0 1920 1087" fill="none" xmlns="http://www.w3.org/2000/svg">
<g clip-path="url(#clip0_30_2)">
<rect width="1920" height="1087" fill="white"/>
<g style="mix-blend-mode:hard-light" filter="url(#filter0_df_30_2)">
<path d="M2122 621.742C2122 978.352 1610.61 1673 1173.95 1673C737.291 1673 679.348 1463.77 679.348 1107.16C948.672 778.604 242.689 0 679.349 0C1116.01 0 2122 265.132 2122 621.742Z" fill="url(#paint0_linear_30_2)"/>
</g>
<g style="mix-blend-mode:plus-darker" filter="url(#filter1_df_30_2)">
<path d="M1987.5 66C1987.5 378.593 2289.88 674 1987.5 674C1685.12 674 892.5 378.593 892.5 66C892.5 -246.593 1137.62 -500 1440 -500C1742.38 -500 1987.5 -246.593 1987.5 66Z" fill="url(#paint1_linear_30_2)"/>
</g>
<g style="mix-blend-mode:multiply" filter="url(#filter2_f_30_2)">
<path d="M1139 425.693C1139 747.55 828.782 1166 479.586 1166C130.39 1166 -513 437.63 -513 115.773C-513 -206.084 -229.921 -467 119.275 -467C468.471 -467 1139 103.836 1139 425.693Z" fill="url(#paint2_linear_30_2)"/>
</g>
<g style="mix-blend-mode:darken" filter="url(#filter3_df_30_2)">
<path d="M1343.5 804.076C1343.5 1116.67 701.876 1918.08 399.5 1918.08C97.1241 1918.08 -278 1633.67 -278 1321.08C-278 1008.48 215.624 708.076 518 708.076C820.376 708.076 1343.5 491.483 1343.5 804.076Z" fill="#4B77BE"/>
</g>
</g>
<defs>
<filter id="filter0_df_30_2" x="483" y="-50" width="1689" height="1773" filterUnits="userSpaceOnUse" color-interpolation-filters="sRGB">
<feFlood flood-opacity="0" result="BackgroundImageFix"/>
<feColorMatrix in="SourceAlpha" type="matrix" values="0 0 0 0 0 0 0 0 0 0 0 0 0 0 0 0 0 0 127 0" result="hardAlpha"/>
<feOffset dy="4"/>
<feGaussianBlur stdDeviation="2"/>
<feComposite in2="hardAlpha" operator="out"/>
<feColorMatrix type="matrix" values="0 0 0 0 0 0 0 0 0 0 0 0 0 0 0 0 0 0 0.25 0"/>
<feBlend mode="normal" in2="BackgroundImageFix" result="effect1_dropShadow_30_2"/>
<feBlend mode="normal" in="SourceGraphic" in2="effect1_dropShadow_30_2" result="shape"/>
<feGaussianBlur stdDeviation="25" result="effect2_foregroundBlur_30_2"/>
</filter>
<filter id="filter1_df_30_2" x="872.5" y="-520" width="1269.39" height="1214" filterUnits="userSpaceOnUse" color-interpolation-filters="sRGB">
<feFlood flood-opacity="0" result="BackgroundImageFix"/>
<feColorMatrix in="SourceAlpha" type="matrix" values="0 0 0 0 0 0 0 0 0 0 0 0 0 0 0 0 0 0 127 0" result="hardAlpha"/>
<feOffset dy="4"/>
<feGaussianBlur stdDeviation="2"/>
<feComposite in2="hardAlpha" operator="out"/>
<feColorMatrix type="matrix" values="0 0 0 0 0 0 0 0 0 0 0 0 0 0 0 0 0 0 0.25 0"/>
<feBlend mode="normal" in2="BackgroundImageFix" result="effect1_dropShadow_30_2"/>
<feBlend mode="normal" in="SourceGraphic" in2="effect1_dropShadow_30_2" result="shape"/>
<feGaussianBlur stdDeviation="10" result="effect2_foregroundBlur_30_2"/>
</filter>
<filter id="filter2_f_30_2" x="-563" y="-517" width="1752" height="1733" filterUnits="userSpaceOnUse" color-interpolation-filters="sRGB">
<feFlood flood-opacity="0" result="BackgroundImageFix"/>
<feBlend mode="normal" in="SourceGraphic" in2="BackgroundImageFix" result="shape"/>
<feGaussianBlur stdDeviation="25" result="effect1_foregroundBlur_30_2"/>
</filter>
<filter id="filter3_df_30_2" x="-308" y="605" width="1681.5" height="1343.08" filterUnits="userSpaceOnUse" color-interpolation-filters="sRGB">
<feFlood flood-opacity="0" result="BackgroundImageFix"/>
<feColorMatrix in="SourceAlpha" type="matrix" values="0 0 0 0 0 0 0 0 0 0 0 0 0 0 0 0 0 0 127 0" result="hardAlpha"/>
<feOffset dy="4"/>
<feGaussianBlur stdDeviation="2"/>
<feComposite in2="hardAlpha" operator="out"/>
<feColorMatrix type="matrix" values="0 0 0 0 0 0 0 0 0 0 0 0 0 0 0 0 0 0 0.25 0"/>
<feBlend mode="normal" in2="BackgroundImageFix" result="effect1_dropShadow_30_2"/>
<feBlend mode="normal" in="SourceGraphic" in2="effect1_dropShadow_30_2" result="shape"/>
<feGaussianBlur stdDeviation="15" result="effect2_foregroundBlur_30_2"/>
</filter>
<linearGradient id="paint0_linear_30_2" x1="1327.5" y1="0" x2="1327.5" y2="1673" gradientUnits="userSpaceOnUse">
<stop stop-color="#89C4F4"/>
<stop offset="0.230769" stop-color="#567A98"/>
<stop offset="0.730769" stop-color="#203959"/>
</linearGradient>
<linearGradient id="paint1_linear_30_2" x1="1507.19" y1="-500" x2="1507.19" y2="674" gradientUnits="userSpaceOnUse">
<stop offset="0.134615" stop-color="#315E7D"/>
<stop offset="0.389423" stop-color="#59ABE3"/>
<stop offset="0.668269" stop-color="#346485"/>
<stop offset="1" stop-color="white"/>
</linearGradient>
<linearGradient id="paint2_linear_30_2" x1="313" y1="-467" x2="313" y2="1166" gradientUnits="userSpaceOnUse">
<stop offset="0.4" stop-color="#5D8CAE"/>
<stop offset="0.870192" stop-color="#D9D9D9"/>
</linearGradient>
<clipPath id="clip0_30_2">
<rect width="1920" height="1087" fill="white"/>
</clipPath>
</defs>
</svg>
